<?xml version="1.0" encoding="UTF-8" standalone="no"?>
<!DOCTYPE svg PUBLIC "-//W3C//DTD SVG 1.1//EN"
 "http://www.w3.org/Graphics/SVG/1.1/DTD/svg11.dtd">
<!-- Generated by graphviz version 2.47.0 (20210316.0004)
 -->
<!-- Title: dependencies Pages: 1 -->
<svg width="630pt" height="284pt"
 viewBox="0.00 0.00 630.00 284.00" xmlns="http://www.w3.org/2000/svg" xmlns:xlink="http://www.w3.org/1999/xlink">
<g id="graph0" class="graph" transform="scale(1 1) rotate(0) translate(4 280)">
<title>dependencies</title>
<polygon fill="white" stroke="transparent" points="-4,4 -4,-280 626,-280 626,4 -4,4"/>
<text text-anchor="start" x="290.01" y="-42.4" font-family="Times-12" font-weight="bold" font-size="14.00">Legend</text>
<polygon fill="#ffffb3" stroke="transparent" points="77,-10 77,-30 97,-30 97,-10 77,-10"/>
<text text-anchor="start" x="100.63" y="-15.4" font-family="Times-12" font-size="14.00"> &#160;Declarations</text>
<polygon fill="#8dd3c7" stroke="transparent" points="190,-10 190,-30 210,-30 210,-10 190,-10"/>
<text text-anchor="start" x="213.73" y="-15.4" font-family="Times-12" font-size="14.00"> &#160;Module</text>
<polygon fill="#80b1d3" stroke="transparent" points="276,-10 276,-30 296,-30 296,-10 276,-10"/>
<text text-anchor="start" x="299.78" y="-15.4" font-family="Times-12" font-size="14.00"> &#160;Bootstrap</text>
<polygon fill="#fdb462" stroke="transparent" points="373,-10 373,-30 393,-30 393,-10 373,-10"/>
<text text-anchor="start" x="396.67" y="-15.4" font-family="Times-12" font-size="14.00"> &#160;Providers</text>
<polygon fill="#fb8072" stroke="transparent" points="469,-10 469,-30 489,-30 489,-10 469,-10"/>
<text text-anchor="start" x="492.73" y="-15.4" font-family="Times-12" font-size="14.00"> &#160;Exports</text>
<g id="clust1" class="cluster">
<title>cluster_AuthModule</title>
<polygon fill="none" stroke="black" stroke-dasharray="1,5" points="8,-70 8,-268 614,-268 614,-70 8,-70"/>
</g>
<g id="clust3" class="cluster">
<title>cluster_AuthModule_imports</title>
<polygon fill="none" stroke="black" points="498,-78 498,-130 606,-130 606,-78 498,-78"/>
</g>
<g id="clust4" class="cluster">
<title>cluster_AuthModule_exports</title>
<polygon fill="none" stroke="black" points="290,-208 290,-260 408,-260 408,-208 290,-208"/>
</g>
<g id="clust6" class="cluster">
<title>cluster_AuthModule_providers</title>
<polygon fill="none" stroke="black" points="16,-78 16,-130 490,-130 490,-78 16,-78"/>
</g>
<!-- UsersModule -->
<g id="node1" class="node">
<title>UsersModule</title>
<polygon fill="#8dd3c7" stroke="black" points="597.92,-122 594.92,-126 573.92,-126 570.92,-122 506.08,-122 506.08,-86 597.92,-86 597.92,-122"/>
<text text-anchor="middle" x="552" y="-99.8" font-family="Times,serif" font-size="14.00">UsersModule</text>
</g>
<!-- AuthModule -->
<g id="node2" class="node">
<title>AuthModule</title>
<polygon fill="#8dd3c7" stroke="black" points="392.55,-187 389.55,-191 368.55,-191 365.55,-187 305.45,-187 305.45,-151 392.55,-151 392.55,-187"/>
<text text-anchor="middle" x="349" y="-164.8" font-family="Times,serif" font-size="14.00">AuthModule</text>
</g>
<!-- UsersModule&#45;&gt;AuthModule -->
<g id="edge1" class="edge">
<title>UsersModule&#45;&gt;AuthModule</title>
<path fill="none" stroke="black" d="M552,-122.11C552,-141.34 552,-169 552,-169 552,-169 402.55,-169 402.55,-169"/>
<polygon fill="black" stroke="black" points="402.55,-165.5 392.55,-169 402.55,-172.5 402.55,-165.5"/>
</g>
<!-- JwtAuthGuard  -->
<g id="node3" class="node">
<title>JwtAuthGuard </title>
<polygon fill="#fb8072" stroke="black" points="399.92,-252 298.08,-252 298.08,-216 399.92,-216 399.92,-252"/>
<text text-anchor="middle" x="349" y="-229.8" font-family="Times,serif" font-size="14.00">JwtAuthGuard </text>
</g>
<!-- AuthModule&#45;&gt;JwtAuthGuard  -->
<g id="edge2" class="edge">
<title>AuthModule&#45;&gt;JwtAuthGuard </title>
<path fill="none" stroke="black" stroke-dasharray="5,2" d="M349,-187.11C349,-187.11 349,-205.99 349,-205.99"/>
<polygon fill="black" stroke="black" points="345.5,-205.99 349,-215.99 352.5,-205.99 345.5,-205.99"/>
</g>
<!-- AuthService -->
<g id="node4" class="node">
<title>AuthService</title>
<ellipse fill="#fdb462" stroke="black" cx="423" cy="-104" rx="59.11" ry="18"/>
<text text-anchor="middle" x="423" y="-99.8" font-family="Times,serif" font-size="14.00">AuthService</text>
</g>
<!-- AuthService&#45;&gt;AuthModule -->
<g id="edge3" class="edge">
<title>AuthService&#45;&gt;AuthModule</title>
<path fill="none" stroke="black" d="M378.23,-115.92C378.23,-115.92 378.23,-140.77 378.23,-140.77"/>
<polygon fill="black" stroke="black" points="374.73,-140.77 378.23,-150.77 381.73,-140.77 374.73,-140.77"/>
</g>
<!-- BcryptProvider -->
<g id="node5" class="node">
<title>BcryptProvider</title>
<ellipse fill="#fdb462" stroke="black" cx="275" cy="-104" rx="70.65" ry="18"/>
<text text-anchor="middle" x="275" y="-99.8" font-family="Times,serif" font-size="14.00">BcryptProvider</text>
</g>
<!-- BcryptProvider&#45;&gt;AuthModule -->
<g id="edge4" class="edge">
<title>BcryptProvider&#45;&gt;AuthModule</title>
<path fill="none" stroke="black" d="M325.4,-116.84C325.4,-116.84 325.4,-140.52 325.4,-140.52"/>
<polygon fill="black" stroke="black" points="321.9,-140.52 325.4,-150.52 328.9,-140.52 321.9,-140.52"/>
</g>
<!-- PasswordProvider -->
<g id="node6" class="node">
<title>PasswordProvider</title>
<ellipse fill="#fdb462" stroke="black" cx="105" cy="-104" rx="81.1" ry="18"/>
<text text-anchor="middle" x="105" y="-99.8" font-family="Times,serif" font-size="14.00">PasswordProvider</text>
</g>
<!-- PasswordProvider&#45;&gt;AuthModule -->
<g id="edge5" class="edge">
<title>PasswordProvider&#45;&gt;AuthModule</title>
<path fill="none" stroke="black" d="M105,-122.11C105,-141.34 105,-169 105,-169 105,-169 295.38,-169 295.38,-169"/>
<polygon fill="black" stroke="black" points="295.38,-172.5 305.38,-169 295.38,-165.5 295.38,-172.5"/>
</g>
</g>
</svg>
